<svg width="60" height="60" viewBox="0 0 60 60" fill="none" xmlns="http://www.w3.org/2000/svg">
<g clip-path="url(#clip0_3917_147)">
<rect width="60" height="60" rx="15" fill="url(#paint0_radial_3917_147)"/>
<rect x="9.99902" y="10" width="40" height="40" rx="9" fill="white"/>
<rect width="15" height="60" transform="translate(22.999)" fill="white"/>
<rect width="15" height="59.8783" transform="matrix(-0.00821976 -0.999966 0.999966 -0.00825321 0.123047 38.4941)" fill="white"/>
<path d="M21.2059 19.75H38.6704C39.3321 19.75 39.9666 20.0134 40.4345 20.4822C40.9024 20.9511 41.1653 21.587 41.1653 22.25V39.75C41.1653 40.413 40.9024 41.0489 40.4345 41.5178C39.9666 41.9866 39.3321 42.25 38.6704 42.25H21.2059C20.5442 42.25 19.9096 41.9866 19.4417 41.5178C18.9738 41.0489 18.7109 40.413 18.7109 39.75V22.25C18.7109 21.587 18.9738 20.9511 19.4417 20.4822C19.9096 20.0134 20.5442 19.75 21.2059 19.75ZM23.7008 22.25C23.0391 22.25 22.4045 22.5134 21.9366 22.9822C21.4687 23.4511 21.2059 24.087 21.2059 24.75C21.2059 25.413 21.4687 26.0489 21.9366 26.5178C22.4045 26.9866 23.0391 27.25 23.7008 27.25C24.3625 27.25 24.9971 26.9866 25.465 26.5178C25.9329 26.0489 26.1957 25.413 26.1957 24.75C26.1957 24.087 25.9329 23.4511 25.465 22.9822C24.9971 22.5134 24.3625 22.25 23.7008 22.25ZM36.1754 34.75C35.5137 34.75 34.8791 35.0134 34.4112 35.4822C33.9434 35.9511 33.6805 36.587 33.6805 37.25C33.6805 37.913 33.9434 38.5489 34.4112 39.0178C34.8791 39.4866 35.5137 39.75 36.1754 39.75C36.8371 39.75 37.4717 39.4866 37.9396 39.0178C38.4075 38.5489 38.6704 37.913 38.6704 37.25C38.6704 36.587 38.4075 35.9511 37.9396 35.4822C37.4717 35.0134 36.8371 34.75 36.1754 34.75ZM36.1754 22.25C35.5137 22.25 34.8791 22.5134 34.4112 22.9822C33.9434 23.4511 33.6805 24.087 33.6805 24.75C33.6805 25.413 33.9434 26.0489 34.4112 26.5178C34.8791 26.9866 35.5137 27.25 36.1754 27.25C36.8371 27.25 37.4717 26.9866 37.9396 26.5178C38.4075 26.0489 38.6704 25.413 38.6704 24.75C38.6704 24.087 38.4075 23.4511 37.9396 22.9822C37.4717 22.5134 36.8371 22.25 36.1754 22.25ZM23.7008 34.75C23.0391 34.75 22.4045 35.0134 21.9366 35.4822C21.4687 35.9511 21.2059 36.587 21.2059 37.25C21.2059 37.913 21.4687 38.5489 21.9366 39.0178C22.4045 39.4866 23.0391 39.75 23.7008 39.75C24.3625 39.75 24.9971 39.4866 25.465 39.0178C25.9329 38.5489 26.1957 37.913 26.1957 37.25C26.1957 36.587 25.9329 35.9511 25.465 35.4822C24.9971 35.0134 24.3625 34.75 23.7008 34.75Z" fill="black"/>
</g>
<defs>
<radialGradient id="paint0_radial_3917_147" cx="0" cy="0" r="1" gradientUnits="userSpaceOnUse" gradientTransform="translate(29.7521 60) rotate(-90) scale(60 36.3001)">
<stop stop-color="#1EFF93"/>
<stop offset="1" stop-color="#81D9FF"/>
</radialGradient>
<clipPath id="clip0_3917_147">
<rect width="60" height="60" rx="15" fill="white"/>
</clipPath>
</defs>
</svg>
